<?xml version="1.0" encoding="UTF-8"?>
<svg version="1.1" xmlns="http://www.w3.org/2000/svg" width="360" height="360">
<path d="M0 0 C2.47910433 2.27112187 4.86792715 4.61553122 7.24731445 6.99145508 C7.91633789 7.64887695 8.58536133 8.30629883 9.2746582 8.98364258 C23.68318073 24.20897477 30.03232038 46.2557723 29.4934082 66.81176758 C28.35651286 91.07684731 17.16686021 111.17189884 -0.50268555 127.61645508 C-19.00356398 143.14986588 -42.00113535 149.02480491 -65.75268555 146.99145508 C-88.94838033 143.91838312 -108.66786404 132.81149677 -123.75268555 114.99145508 C-137.0851598 97.39735066 -141.45974412 77.36025275 -139.06518555 55.74145508 C-137.14068728 42.55062321 -132.30409744 30.53918182 -125.75268555 18.99145508 C-125.1121524 17.84618851 -124.47161926 16.70092194 -123.81167603 15.52095032 C-120.60356471 10.35727203 -117.91146673 6.63142976 -111.92352295 4.85629272 C-107.32810489 4.32602608 -102.76208625 4.525937 -98.15112305 4.72192383 C-96.46154907 4.74621287 -94.77188265 4.76469789 -93.08218384 4.77766418 C-88.6639304 4.82698207 -84.25135658 4.95435139 -79.83532715 5.09881592 C-75.31767624 5.23252665 -70.79909433 5.29132647 -66.2800293 5.35668945 C-57.43510415 5.4955384 -48.59436947 5.71698073 -39.75268555 5.99145508 C-40.42889298 9.63972485 -41.34931366 12.54180138 -43.0378418 15.85473633 C-43.48579102 16.7409668 -43.93374023 17.62719727 -44.39526367 18.5402832 C-44.86383789 19.45229492 -45.33241211 20.36430664 -45.81518555 21.30395508 C-46.28762695 22.23530273 -46.76006836 23.16665039 -47.24682617 24.1262207 C-48.41006199 26.41744277 -49.57881687 28.70566748 -50.75268555 30.99145508 C-52.40268555 30.99145508 -54.05268555 30.99145508 -55.75268555 30.99145508 C-50.97569867 36.74121019 -45.80071614 42.02520281 -40.4609375 47.24609375 C-36.98661671 50.66603842 -33.81686079 54.19825673 -30.75268555 57.99145508 C-28.90599588 55.22142057 -28.23341779 53.57089411 -27.42407227 50.42822266 C-27.1839743 49.50749466 -26.94387634 48.58676666 -26.69650269 47.63813782 C-26.31825851 46.15207283 -26.31825851 46.15207283 -25.93237305 44.63598633 C-25.6688504 43.6192131 -25.40532776 42.60243988 -25.13381958 41.55485535 C-24.29308517 38.3059111 -23.46029954 35.0549888 -22.62768555 31.80395508 C-22.05919731 29.60134628 -21.49019324 27.39887055 -20.9206543 25.1965332 C-19.52534133 19.7963705 -18.13654968 14.39456233 -16.75268555 8.99145508 C-13.75268555 8.99145508 -13.75268555 8.99145508 -11.0456543 11.37036133 C-10.00125976 12.42246852 -8.9665569 13.48425824 -7.94018555 14.55395508 C-7.40627197 15.10607666 -6.8723584 15.65819824 -6.32226562 16.22705078 C-5.26822872 17.32191816 -4.21759188 18.42007064 -3.1706543 19.52172852 C-2.01144852 20.72324691 -0.80949037 21.88338965 0.40356445 23.03051758 C2.05981445 24.67895508 2.05981445 24.67895508 4.24731445 27.99145508 C3.95754995 36.4715246 1.51690806 44.66344561 -0.53393555 52.85864258 C-0.91172294 54.38547386 -1.28903429 55.91242301 -1.66589355 57.43948364 C-2.45259669 60.62239054 -3.24295755 63.80435645 -4.03637695 66.9855957 C-5.05334624 71.06318359 -6.06422756 75.14224788 -7.07279205 79.22192192 C-8.03714751 83.12212339 -9.00402224 87.02169861 -9.97143555 90.92114258 C-10.24752403 92.03473963 -10.24752403 92.03473963 -10.52919006 93.17083359 C-11.04958925 95.26747062 -11.57172328 97.3636671 -12.09448242 99.4597168 C-12.39124878 100.65168671 -12.68801514 101.84365662 -12.99377441 103.07174683 C-13.51162596 105.0640426 -14.10173143 107.03859271 -14.75268555 108.99145508 C-18.43765567 107.7631317 -19.25219363 106.40529191 -21.62768555 103.36645508 C-25.44343385 98.58429993 -29.35998159 93.91777123 -33.37768555 89.30395508 C-33.93464111 88.66369385 -34.49159668 88.02343262 -35.06542969 87.36376953 C-36.62628423 85.57162578 -38.1890399 83.78116368 -39.75268555 81.99145508 C-40.54030273 81.08911133 -41.32791992 80.18676758 -42.1394043 79.25708008 C-43.67518872 77.50011777 -45.21315138 75.7451292 -46.75268555 73.99145508 C-50.67063438 83.40833211 -54.05677098 93.02021348 -57.50268555 102.61645508 C-58.11059736 104.30531516 -58.71866899 105.99411773 -59.3269043 107.68286133 C-60.80400811 111.7850651 -62.27894668 115.88804129 -63.75268555 119.99145508 C-69.10071427 119.19940223 -73.59695424 117.66643287 -78.56518555 115.61645508 C-79.34055664 115.31223633 -80.11592773 115.00801758 -80.91479492 114.69458008 C-81.65149414 114.39293945 -82.38819336 114.09129883 -83.1472168 113.78051758 C-83.81599854 113.50933105 -84.48478027 113.23814453 -85.17382812 112.95874023 C-86.75268555 111.99145508 -86.75268555 111.99145508 -87.75268555 108.99145508 C-87.12280273 106.60133362 -87.12280273 106.60133362 -86.04956055 103.73583984 C-85.65164307 102.65943741 -85.25372559 101.58303497 -84.84375 100.47401428 C-84.1799231 98.72114357 -84.1799231 98.72114357 -83.50268555 96.93286133 C-82.81302788 95.07692655 -82.12337166 93.22099123 -81.43379211 91.36502743 C-80.45969664 88.75062172 -79.47703013 86.13946892 -78.49456787 83.52819824 C-76.57383067 78.41687242 -74.67028118 73.29909519 -72.76394653 68.18238449 C-72.0682452 66.31606926 -71.37128353 64.450224 -70.67431641 62.5843811 C-66.89200844 52.43484268 -63.2678567 42.23628943 -59.75268555 31.99145508 C-65.14142175 31.64315265 -70.52352731 31.39046476 -75.92089844 31.22241211 C-77.75213731 31.15234619 -79.58260201 31.05704072 -81.41113281 30.93530273 C-91.44303594 29.92264519 -91.44303594 29.92264519 -100.47076416 33.34631348 C-103.7836264 37.12989383 -105.79371077 41.39548715 -107.75268555 45.99145508 C-108.41268555 47.31145508 -109.07268555 48.63145508 -109.75268555 49.99145508 C-97.54268555 49.99145508 -85.33268555 49.99145508 -72.75268555 49.99145508 C-73.46614956 54.27223919 -73.96797906 56.95070672 -75.6003418 60.73364258 C-75.92268799 61.49016113 -76.24503418 62.24667969 -76.57714844 63.02612305 C-76.98570068 63.96343262 -77.39425293 64.90074219 -77.81518555 65.86645508 C-79.11456055 68.87770508 -80.41393555 71.88895508 -81.75268555 74.99145508 C-92.64268555 74.99145508 -103.53268555 74.99145508 -114.75268555 74.99145508 C-111.4758376 91.37569479 -104.3551873 105.09018866 -90.37768555 114.86645508 C-74.25967108 125.56751139 -56.6084958 129.50472073 -37.50268555 125.74145508 C-19.86676824 121.47976905 -5.18554061 111.87034362 5.05981445 96.67895508 C14.75681372 80.46392564 18.12869634 61.42495891 13.74731445 42.99145508 C10.27543213 29.86415663 4.11629935 18.38882477 -5.75268555 8.99145508 C-6.38819336 8.35981445 -7.02370117 7.72817383 -7.6784668 7.07739258 C-21.09762895 -5.53606419 -39.28142159 -11.45088733 -57.5065918 -11.22338867 C-73.36261023 -10.17395304 -87.10255444 -5.47366691 -100.7800293 2.63598633 C-104.03557251 4.12044559 -106.21749802 4.2601504 -109.75268555 3.99145508 C-108.2515777 -0.26168383 -105.16782015 -2.09815583 -101.50268555 -4.38354492 C-100.88151855 -4.77493652 -100.26035156 -5.16632813 -99.62036133 -5.56958008 C-69.0779337 -24.30750179 -27.70135281 -24.4499199 0 0 Z " fill="#1A96D3" transform="translate(235.752685546875,127.008544921875)"/>
<path d="M0 0 C4.92345137 4.11962257 9.54376044 8.38134624 14 13 C14.59683594 13.55558594 15.19367188 14.11117187 15.80859375 14.68359375 C17.51501149 16.39001149 18.7796151 17.91854248 20 20 C19.7563089 28.47269632 17.26740569 36.68073348 15.21875 44.8671875 C14.84096261 46.39401879 14.46365126 47.92096793 14.08679199 49.44802856 C13.30008886 52.63093546 12.50972799 55.81290137 11.71630859 58.99414062 C10.6993393 63.07172851 9.68845799 67.15079281 8.67989349 71.23046684 C7.71553804 75.13066831 6.74866331 79.03024354 5.78125 82.9296875 C5.50516151 84.04328455 5.50516151 84.04328455 5.22349548 85.17937851 C4.7030963 87.27601554 4.18096227 89.37221202 3.65820312 91.46826172 C3.36143677 92.66023163 3.06467041 93.85220154 2.75891113 95.08029175 C2.24105958 97.07258752 1.65095412 99.04713764 1 101 C-2.68497012 99.77167663 -3.49950808 98.41383683 -5.875 95.375 C-9.6907483 90.59284485 -13.60729604 85.92631615 -17.625 81.3125 C-18.18195557 80.67223877 -18.73891113 80.03197754 -19.31274414 79.37231445 C-20.87359869 77.5801707 -22.43635435 75.78970861 -24 74 C-24.78761719 73.09765625 -25.57523438 72.1953125 -26.38671875 71.265625 C-27.92250318 69.50866269 -29.46046584 67.75367412 -31 66 C-34.91794884 75.41687703 -38.30408543 85.0287584 -41.75 94.625 C-42.35791182 96.31386008 -42.96598344 98.00266265 -43.57421875 99.69140625 C-45.05132256 103.79361002 -46.52626114 107.89658621 -48 112 C-53.34802872 111.20794715 -57.8442687 109.67497779 -62.8125 107.625 C-63.58787109 107.32078125 -64.36324219 107.0165625 -65.16210938 106.703125 C-65.89880859 106.40148437 -66.63550781 106.09984375 -67.39453125 105.7890625 C-68.06331299 105.51787598 -68.73209473 105.24668945 -69.42114258 104.96728516 C-71 104 -71 104 -72 101 C-71.37011719 98.60987854 -71.37011719 98.60987854 -70.296875 95.74438477 C-69.89895752 94.66798233 -69.50104004 93.5915799 -69.09106445 92.4825592 C-68.42723755 90.72968849 -68.42723755 90.72968849 -67.75 88.94140625 C-67.06034233 87.08547147 -66.37068611 85.22953615 -65.68110657 83.37357235 C-64.7070111 80.75916664 -63.72434458 78.14801384 -62.74188232 75.53674316 C-61.05693494 71.05288399 -59.38614521 66.56372935 -57.71411133 62.07504272 C-56.78422359 59.5787774 -55.8496676 57.08441672 -54.9128418 54.59072876 C-52.81818727 48.99538986 -50.76987555 43.39778961 -48.890625 37.72607422 C-48.42015747 36.31587257 -48.42015747 36.31587257 -47.94018555 34.87718201 C-47.37221548 33.154323 -46.81803127 31.42683184 -46.28051758 29.69422913 C-45.53515625 27.43334961 -45.53515625 27.43334961 -44 24 C-41.90405273 23.28541565 -41.90405273 23.28541565 -40 23 C-39.64550781 23.42667969 -39.29101562 23.85335937 -38.92578125 24.29296875 C-34.44564226 29.55414891 -29.64550955 34.42730684 -24.70825195 39.25463867 C-21.23393116 42.67458334 -18.06417524 46.20680165 -15 50 C-13.15289441 47.22934162 -12.48808422 45.5960865 -11.68725586 42.45263672 C-11.45038559 41.53513641 -11.21351532 40.61763611 -10.96946716 39.67233276 C-10.72044144 38.68475983 -10.47141571 37.69718689 -10.21484375 36.6796875 C-9.95369278 35.66528595 -9.69254181 34.6508844 -9.42347717 33.60574341 C-8.5893961 30.36352442 -7.76289086 27.11944129 -6.9375 23.875 C-6.10775597 20.62363089 -5.27636231 17.37271506 -4.44081116 14.12283325 C-3.92081865 12.09939793 -3.40432993 10.07505851 -2.8915863 8.04977417 C-2.54100914 6.68298019 -2.54100914 6.68298019 -2.18334961 5.28857422 C-1.97842392 4.48265839 -1.77349823 3.67674255 -1.56236267 2.84640503 C-1 1 -1 1 0 0 Z " fill="#FB7B0F" transform="translate(220,135)"/>
<path d="M0 0 C2.47910433 2.27112187 4.86792715 4.61553122 7.24731445 6.99145508 C7.91633789 7.64887695 8.58536133 8.30629883 9.2746582 8.98364258 C23.68318073 24.20897477 30.03232038 46.2557723 29.4934082 66.81176758 C28.45118034 89.05633238 19.06014261 108.32724373 3.24731445 123.99145508 C1.93599973 125.02015887 0.60952248 126.03115978 -0.75268555 126.99145508 C-1.08268555 126.00145508 -1.41268555 125.01145508 -1.75268555 123.99145508 C-2.41268555 123.66145508 -3.07268555 123.33145508 -3.75268555 122.99145508 C-4.37768555 120.42895508 -4.37768555 120.42895508 -4.75268555 117.99145508 C-3.78331055 117.26958008 -2.81393555 116.54770508 -1.81518555 115.80395508 C6.9601676 108.27459528 16.32399527 94.68683137 17.24731445 82.99145508 C17.90731445 82.99145508 18.56731445 82.99145508 19.24731445 82.99145508 C22.24716164 64.1084884 21.16201241 47.47071941 16.24731445 28.99145508 C15.58731445 28.99145508 14.92731445 28.99145508 14.24731445 28.99145508 C13.24247242 27.03560183 12.2435764 25.07669271 11.24731445 23.11645508 C10.69043945 22.0259082 10.13356445 20.93536133 9.55981445 19.81176758 C8.24731445 16.99145508 8.24731445 16.99145508 8.24731445 14.99145508 C6.92731445 14.99145508 5.60731445 14.99145508 4.24731445 14.99145508 C3.91731445 16.31145508 3.58731445 17.63145508 3.24731445 18.99145508 C2.69043945 18.35079102 2.13356445 17.71012695 1.55981445 17.05004883 C-13.25148732 0.26223888 -29.81283273 -9.4446349 -52.3425293 -11.21166992 C-69.92926676 -11.56281942 -85.75292952 -6.27388699 -100.7800293 2.63598633 C-104.03557251 4.12044559 -106.21749802 4.2601504 -109.75268555 3.99145508 C-108.2515777 -0.26168383 -105.16782015 -2.09815583 -101.50268555 -4.38354492 C-100.57093506 -4.97063232 -100.57093506 -4.97063232 -99.62036133 -5.56958008 C-69.0779337 -24.30750179 -27.70135281 -24.4499199 0 0 Z " fill="#0D7FC3" transform="translate(235.752685546875,127.008544921875)"/>
<path d="M0 0 C1.32 0 2.64 0 4 0 C5.00484204 1.95585325 6.00373805 3.91476237 7 5.875 C7.556875 6.96554688 8.11375 8.05609375 8.6875 9.1796875 C10 12 10 12 10 14 C10.66 14 11.32 14 12 14 C12.82134989 16.49738858 13.63215748 18.99744805 14.4375 21.5 C14.66759766 22.19609375 14.89769531 22.8921875 15.13476562 23.609375 C19.85069526 38.37228517 18.53099365 53.18243736 15 68 C14.34 68 13.68 68 13 68 C13.061875 68.86238281 13.12375 69.72476563 13.1875 70.61328125 C12.6578223 80.18058467 4.25256592 91.00877821 -2 98 C-9.69361033 104.86601082 -18.7094394 111.49015061 -28 116 C-31 115 -31 115 -33 112 C-36.08365871 111.7497843 -36.08365871 111.7497843 -39 112 C-37.49700679 108.99401358 -35.3237999 108.93903531 -32.1875 107.875 C-15.24926578 101.51852917 -2.07670188 89.23622032 5.46875 72.80078125 C12.41793546 55.73083441 13.45880119 37.38606497 7 20 C5.32602694 16.2473161 3.4123795 12.66223433 1.390625 9.0859375 C-0.1026141 5.77228895 -0.28028233 3.58976988 0 0 Z " fill="#2AA8E4" transform="translate(240,142)"/>
<path d="M0 0 C1.75 0.05078125 1.75 0.05078125 4 1 C5.54488106 3.39878992 6.78569746 5.62777028 8 8.1875 C8.34812744 8.90349365 8.69625488 9.6194873 9.05493164 10.35717773 C18.50481925 30.4141272 19.75982151 52.9188153 12.74609375 73.91796875 C7.78089581 87.67632152 -0.89041297 101.46328662 -13 110 C-13.33 109.01 -13.66 108.02 -14 107 C-14.66 106.67 -15.32 106.34 -16 106 C-16.625 103.4375 -16.625 103.4375 -17 101 C-15.5459375 99.9171875 -15.5459375 99.9171875 -14.0625 98.8125 C-5.28714685 91.2831402 4.07668082 77.69537629 5 66 C5.66 66 6.32 66 7 66 C10.27245093 45.40109011 10.26978035 24.63944855 0.27734375 5.7421875 C-1 3 -1 3 0 0 Z " fill="#0376BA" transform="translate(248,144)"/>
<path d="M0 0 C1.8012428 3.60248561 -0.50498668 7.44479158 -1.67578125 11.11328125 C-3.91955355 17.81336233 -6.46114225 24.40743271 -9 31 C-10.8172331 30.41022253 -12.62872043 29.80271547 -14.4375 29.1875 C-15.95150391 28.68283203 -15.95150391 28.68283203 -17.49609375 28.16796875 C-18.73552734 27.58982422 -18.73552734 27.58982422 -20 27 C-21.21205531 23.36383407 -20.66898648 22.41130247 -19.34765625 18.89453125 C-18.98349609 17.91162109 -18.61933594 16.92871094 -18.24414062 15.91601562 C-17.85419922 14.89185547 -17.46425781 13.86769531 -17.0625 12.8125 C-16.67642578 11.77673828 -16.29035156 10.74097656 -15.89257812 9.67382812 C-14.93657556 7.11268546 -13.97210743 4.55506401 -13 2 C-11 4 -11 4 -11 8 C-10.01 8.66 -9.02 9.32 -8 10 C-7.01 10.66 -6.02 11.32 -5 12 C-5 10.68 -5 9.36 -5 8 C-4.01 8 -3.02 8 -2 8 C-1.855625 6.865625 -1.71125 5.73125 -1.5625 4.5625 C-1 1 -1 1 0 0 Z " fill="#FAB61E" transform="translate(169,212)"/>
<path d="M0 0 C1.10976196 0.00616333 1.10976196 0.00616333 2.24194336 0.01245117 C11.3049646 0.10421611 19.2847261 0.47851321 27.6875 4.125 C27.6875 5.115 27.6875 6.105 27.6875 7.125 C26.98625 6.99222656 26.285 6.85945313 25.5625 6.72265625 C0.5740599 2.07127542 -20.46066956 4.91084969 -42.6328125 17.8671875 C-45.3125 19.125 -45.3125 19.125 -48.3125 18.125 C-46.9375 16.625 -46.9375 16.625 -45.3125 15.125 C-44.6525 15.125 -43.9925 15.125 -43.3125 15.125 C-43.3125 14.465 -43.3125 13.805 -43.3125 13.125 C-28.95722277 5.76590423 -28.95722277 5.76590423 -21.3125 3.125 C-20.075 2.568125 -20.075 2.568125 -18.8125 2 C-12.81871256 -0.0978256 -6.28975825 -0.04267921 0 0 Z " fill="#0773BB" transform="translate(177.3125,111.875)"/>
<path d="M0 0 C1.32 0 2.64 0 4 0 C5.00484204 1.95585325 6.00373805 3.91476237 7 5.875 C7.556875 6.96554688 8.11375 8.05609375 8.6875 9.1796875 C10 12 10 12 10 14 C10.66 14 11.32 14 12 14 C12.86689178 16.57967797 13.71873789 19.16276127 14.5625 21.75 C14.80935547 22.47960937 15.05621094 23.20921875 15.31054688 23.9609375 C15.53935547 24.66992188 15.76816406 25.37890625 16.00390625 26.109375 C16.32597046 27.08342285 16.32597046 27.08342285 16.65454102 28.07714844 C17.19227088 31.07019464 16.43864677 33.21646302 14.9765625 35.828125 C13.64073778 38.79899918 13.56941013 41.50983115 13.375 44.75 C13.30023438 45.92046875 13.22546875 47.0909375 13.1484375 48.296875 C13.09945312 49.18890625 13.05046875 50.0809375 13 51 C12.67 51 12.34 51 12 51 C11.96036133 50.43192627 11.92072266 49.86385254 11.87988281 49.27856445 C10.79250248 34.42020306 9.22573176 21.43328825 1.171875 8.53515625 C-0.22232595 5.51903486 -0.21040164 3.28513465 0 0 Z " fill="#29A6D9" transform="translate(240,142)"/>
<path d="M0 0 C0 0.99 0 1.98 0 3 C-1.11117187 3.09796875 -2.22234375 3.1959375 -3.3671875 3.296875 C-11.8705755 4.12003052 -19.25492484 5.20075966 -27 9 C-29.2904427 10.06513594 -31.58217068 11.12751128 -33.875 12.1875 C-34.94492188 12.69667969 -36.01484375 13.20585938 -37.1171875 13.73046875 C-39.44653026 14.75626333 -41.51759892 15.50232056 -44 16 C-44 16.66 -44 17.32 -44 18 C-48.35294118 22 -48.35294118 22 -52 22 C-50.49889215 17.74686109 -47.41513461 15.91038909 -43.75 13.625 C-42.81824951 13.0379126 -42.81824951 13.0379126 -41.86767578 12.43896484 C-29.14111778 4.63116219 -15.10541651 -0.9023147 0 0 Z " fill="#2092CD" transform="translate(178,109)"/>
<path d="M0 0 C20.77588872 -0.61205564 20.77588872 -0.61205564 28 3 C28 3.66 28 4.32 28 5 C28.66 5.33 29.32 5.66 30 6 C29.67 6.66 29.34 7.32 29 8 C22.125 7.125 22.125 7.125 21 6 C19.58879098 5.77428816 18.16823957 5.60611651 16.74609375 5.46484375 C15.46508789 5.33432617 15.46508789 5.33432617 14.15820312 5.20117188 C13.26037109 5.11416016 12.36253906 5.02714844 11.4375 4.9375 C10.08495117 4.80118164 10.08495117 4.80118164 8.70507812 4.66210938 C6.47041566 4.43746077 4.23542161 4.21694231 2 4 C2 3.01 2 2.02 2 1 C1.34 0.67 0.68 0.34 0 0 Z " fill="#0F84CD" transform="translate(176,108)"/>
<path d="M0 0 C4.875 4.75 4.875 4.75 6 7 C5.236875 7.226875 4.47375 7.45375 3.6875 7.6875 C0.29297087 9.3452933 -0.49936705 10.54854422 -2 14 C-2.49870992 16.66862863 -2.74189104 19.28985592 -3 22 C-3.30169066 23.34084736 -3.61517681 24.6806062 -4 26 C-4.33 25.67 -4.66 25.34 -5 25 C-5.66 26.98 -6.32 28.96 -7 31 C-8.17348495 27.47954514 -7.75316049 26.14720115 -6.85546875 22.59765625 C-6.59056641 21.54255859 -6.32566406 20.48746094 -6.05273438 19.40039062 C-5.62444336 17.74813477 -5.62444336 17.74813477 -5.1875 16.0625 C-4.91357422 14.96486328 -4.63964844 13.86722656 -4.35742188 12.73632812 C-2.09076118 3.82731884 -2.09076118 3.82731884 0 0 Z " fill="#FDA521" transform="translate(231,146)"/>
<path d="M0 0 C1.32 0 2.64 0 4 0 C7.04157942 5.22771463 8.50610724 8.92671312 8 15 C7.01 15 6.02 15 5 15 C-0.74031891 5.77448747 -0.74031891 5.77448747 0 0 Z " fill="#1795D0" transform="translate(240,142)"/>
<path d="M0 0 C0.66 1.32 1.32 2.64 2 4 C2.66 4 3.32 4 4 4 C6.22923777 8.32734391 5.92470553 11.28400182 5 16 C3.68 16 2.36 16 1 16 C-2.25601751 7.14223195 -2.25601751 7.14223195 -1.1875 2.375 C-0.795625 1.59125 -0.40375 0.8075 0 0 Z " fill="#209CDB" transform="translate(248,152)"/>
<path d="M0 0 C0.8547899 2.39341171 1.21981724 3.51939958 0.140625 5.87890625 C-0.23578125 6.57886719 -0.6121875 7.27882812 -1 8 C-1.63345976 9.39201452 -2.2581237 10.78805749 -2.875 12.1875 C-3.21789062 12.96351563 -3.56078125 13.73953125 -3.9140625 14.5390625 C-4.27242187 15.35117188 -4.63078125 16.16328125 -5 17 C-5.74952688 18.68771019 -6.49950618 20.37521956 -7.25 22.0625 C-7.58515625 22.81660156 -7.9203125 23.57070312 -8.265625 24.34765625 C-8.50796875 24.89292969 -8.7503125 25.43820313 -9 26 C-10.33037392 22.97013108 -9.91937642 21.75620311 -8.85546875 18.5390625 C-8.31075437 17.22962745 -7.7543359 15.9250119 -7.1875 14.625 C-6.63771016 13.32620235 -6.08951098 12.02673011 -5.54296875 10.7265625 C-5.27661621 10.10168945 -5.01026367 9.47681641 -4.73583984 8.83300781 C-4.04657647 7.11602393 -3.48108806 5.3508035 -2.92578125 3.5859375 C-2 1 -2 1 0 0 Z " fill="#F35503" transform="translate(171,215)"/>
<path d="M0 0 C0.33 0.99 0.66 1.98 1 3 C1.66 3 2.32 3 3 3 C3 3.66 3 4.32 3 5 C1.35 5.33 -0.3 5.66 -2 6 C-2.103125 6.70125 -2.20625 7.4025 -2.3125 8.125 C-3.31666862 12.32425058 -4.41692494 16.00492425 -8.1875 18.375 C-8.785625 18.58125 -9.38375 18.7875 -10 19 C-9.43288856 14.72724258 -7.93094694 11.94982844 -5.5625 8.375 C-4.94503906 7.43398437 -4.32757813 6.49296875 -3.69140625 5.5234375 C-3.13324219 4.69070312 -2.57507813 3.85796875 -2 3 C-1.34 2.01 -0.68 1.02 0 0 Z " fill="#27A6D8" transform="translate(115,139)"/>
<path d="M0 0 C1.98 1.65 3.96 3.3 6 5 C5.35451147 7.75008135 4.70862234 10.50006756 4.0625 13.25 C3.88009766 14.02730469 3.69769531 14.80460938 3.50976562 15.60546875 C3.33251953 16.35957031 3.15527344 17.11367187 2.97265625 17.890625 C2.81031494 18.58188477 2.64797363 19.27314453 2.48071289 19.98535156 C2.0014338 21.99399101 1.50453398 23.99756942 1 26 C0.34 26 -0.32 26 -1 26 C-0.67 22.7 -0.34 19.4 0 16 C0.66 16 1.32 16 2 16 C2.33 12.04 2.66 8.08 3 4 C2.34 4 1.68 4 1 4 C0.67 2.68 0.34 1.36 0 0 Z " fill="#F14F00" transform="translate(225,140)"/>
<path d="M0 0 C4.29 0 8.58 0 13 0 C13.33 1.32 13.66 2.64 14 4 C10.04 4 6.08 4 2 4 C2 3.01 2 2.02 2 1 C1.34 0.67 0.68 0.34 0 0 Z " fill="#1A88C4" transform="translate(176,108)"/>
<path d="M0 0 C0.67804688 0.19335938 1.35609375 0.38671875 2.0546875 0.5859375 C8.32924309 2.34142258 14.59276664 3.81862292 21 5 C21 5.33 21 5.66 21 6 C19.20991533 6.22151549 17.41781838 6.42682213 15.625 6.625 C14.62726563 6.74101562 13.62953125 6.85703125 12.6015625 6.9765625 C11.74304688 6.98429688 10.88453125 6.99203125 10 7 C9.34 6.34 8.68 5.68 8 5 C6.02919843 4.25723969 6.02919843 4.25723969 4 4 C3.01 4.495 3.01 4.495 2 5 C1.34 3.35 0.68 1.7 0 0 Z " fill="#32A7DC" transform="translate(156,249)"/>
<path d="M0 0 C1.8526862 3.7053724 -0.6723476 7.94429699 -1.875 11.7109375 C-3.08410152 15.24588014 -4.42550958 18.61484559 -6 22 C-6.33 22 -6.66 22 -7 22 C-6.03644647 12.58997722 -6.03644647 12.58997722 -5 8 C-4.01 8 -3.02 8 -2 8 C-1.855625 6.865625 -1.71125 5.73125 -1.5625 4.5625 C-1 1 -1 1 0 0 Z " fill="#FEA41E" transform="translate(169,212)"/>
<path d="M0 0 C0.99 0 1.98 0 3 0 C3.63934602 5.11476819 1.40533547 8.67254378 -1 13 C-2.07310858 9.72814447 -1.89263102 7.57052408 -1.0625 4.25 C-0.86785156 3.45078125 -0.67320313 2.6515625 -0.47265625 1.828125 C-0.31667969 1.22484375 -0.16070312 0.6215625 0 0 Z " fill="#2DA9DE" transform="translate(99,171)"/>
<path d="M0 0 C0 1.32 0 2.64 0 4 C-1.98 4.99 -1.98 4.99 -4 6 C-4.99 4.68 -5.98 3.36 -7 2 C-4 0 -4 0 0 0 Z " fill="#21A4E0" transform="translate(120,240)"/>
<path d="M0 0 C0.33 0.66 0.66 1.32 1 2 C2.65 2 4.3 2 6 2 C6.33 2.66 6.66 3.32 7 4 C2.375 6.125 2.375 6.125 -1 5 C-0.67 3.35 -0.34 1.7 0 0 Z " fill="#1782C1" transform="translate(206,264)"/>
<path d="M0 0 C0.33 0 0.66 0 1 0 C1.40652968 5.42039575 0.03993514 9.07015675 -2 14 C-2.84062397 10.90226756 -3.08935201 8.21667249 -3 5 C-2.34 4.67 -1.68 4.34 -1 4 C-0.34786708 1.97536745 -0.34786708 1.97536745 0 0 Z " fill="#F45D04" transform="translate(223,168)"/>
<path d="M0 0 C1.0625 1.8125 1.0625 1.8125 2 4 C1.67 4.99 1.34 5.98 1 7 C0.34 7 -0.32 7 -1 7 C-2.625 4.5 -2.625 4.5 -4 2 C-2.68 1.34 -1.36 0.68 0 0 Z " fill="#FD6F0C" transform="translate(219,228)"/>
<path d="M0 0 C-0.66 1.65 -1.32 3.3 -2 5 C-2.33 4.01 -2.66 3.02 -3 2 C-4.65 2 -6.3 2 -8 2 C-8 1.34 -8 0.68 -8 0 C-4.71303767 -0.79953138 -3.28976808 -1.09658936 0 0 Z " fill="#0E87C0" transform="translate(187,152)"/>
<path d="M0 0 C3.96 0.33 7.92 0.66 12 1 C12 1.33 12 1.66 12 2 C8.37 2.33 4.74 2.66 1 3 C0.67 2.01 0.34 1.02 0 0 Z " fill="#2BACD6" transform="translate(165,253)"/>
<path d="M0 0 C0.99 0 1.98 0 3 0 C3.33 1.65 3.66 3.3 4 5 C-1.75 4.25 -1.75 4.25 -4 2 C-3.01 2 -2.02 2 -1 2 C-0.67 1.34 -0.34 0.68 0 0 Z " fill="#F5370D" transform="translate(168,242)"/>
<path d="M0 0 C0.33 0.99 0.66 1.98 1 3 C-0.43359375 5.04296875 -0.43359375 5.04296875 -2.4375 7.1875 C-3.09621094 7.90292969 -3.75492188 8.61835938 -4.43359375 9.35546875 C-4.95050781 9.89816406 -5.46742188 10.44085938 -6 11 C-6 7.39426104 -5.18292538 6.58663434 -3 3.8125 C-2.443125 3.09707031 -1.88625 2.38164062 -1.3125 1.64453125 C-0.879375 1.10183594 -0.44625 0.55914062 0 0 Z " fill="#0A87C6" transform="translate(246,228)"/>
<path d="M0 0 C0 0.99 0 1.98 0 3 C-0.639375 3.103125 -1.27875 3.20625 -1.9375 3.3125 C-2.618125 3.539375 -3.29875 3.76625 -4 4 C-4.33 4.99 -4.66 5.98 -5 7 C-5.66 6.34 -6.32 5.68 -7 5 C-2.25 0 -2.25 0 0 0 Z " fill="#0483BE" transform="translate(232,125)"/>
<path d="M0 0 C1.98 1.65 3.96 3.3 6 5 C5.67 6.32 5.34 7.64 5 9 C4.34 9 3.68 9 3 9 C3 7.35 3 5.7 3 4 C2.34 4 1.68 4 1 4 C0.67 2.68 0.34 1.36 0 0 Z " fill="#ED3D05" transform="translate(225,140)"/>
<path d="M0 0 C-0.33 0.99 -0.66 1.98 -1 3 C-4.3 3.66 -7.6 4.32 -11 5 C-9.70976282 2.41952564 -8.72910609 2.32977036 -6.0625 1.375 C-5.35222656 1.11460937 -4.64195312 0.85421875 -3.91015625 0.5859375 C-2 0 -2 0 0 0 Z " fill="#31AAD2" transform="translate(212,249)"/>
<path d="M0 0 C0.66 0 1.32 0 2 0 C2 2.31 2 4.62 2 7 C0.68 7.33 -0.64 7.66 -2 8 C-1.47731534 5.23723823 -0.89130413 2.6739124 0 0 Z " fill="#F0970F" transform="translate(166,187)"/>
<path d="M0 0 C4.875 1.75 4.875 1.75 6 4 C4.35 4.33 2.7 4.66 1 5 C0.67 3.35 0.34 1.7 0 0 Z " fill="#27AAE1" transform="translate(144,242)"/>
<path d="M0 0 C0 0.99 0 1.98 0 3 C-0.66 3 -1.32 3 -2 3 C-2 3.66 -2 4.32 -2 5 C-2.66 5 -3.32 5 -4 5 C-4 5.66 -4 6.32 -4 7 C-5.32 6.34 -6.64 5.68 -8 5 C-4.04 2.525 -4.04 2.525 0 0 Z " fill="#35AAD6" transform="translate(224,241)"/>
<path d="M0 0 C2.4375 0.375 2.4375 0.375 5 1 C5.33 1.66 5.66 2.32 6 3 C4.02 3.66 2.04 4.32 0 5 C0 3.35 0 1.7 0 0 Z " fill="#FBB319" transform="translate(231,150)"/>
<path d="M0 0 C0.33 0 0.66 0 1 0 C1.17835515 4.54805635 0.99785435 7.8794254 -1 12 C-1.33 12 -1.66 12 -2 12 C-2 9.69 -2 7.38 -2 5 C-1.34 5 -0.68 5 0 5 C0 3.35 0 1.7 0 0 Z " fill="#FE9B1B" transform="translate(222,178)"/>
<path d="M0 0 C0 0.99 0 1.98 0 3 C-2.64 3 -5.28 3 -8 3 C-7.67 2.34 -7.34 1.68 -7 1 C-4.61370553 0.38812962 -2.46459429 0 0 0 Z " fill="#116CAF" transform="translate(194,113)"/>
<path d="M0 0 C2.97 0.495 2.97 0.495 6 1 C6 1.66 6 2.32 6 3 C3.69 3 1.38 3 -1 3 C-0.67 2.01 -0.34 1.02 0 0 Z " fill="#0D6CAD" transform="translate(169,113)"/>
</svg>
